<svg version="1.1" xmlns="http://www.w3.org/2000/svg" viewBox="0 0 273.546875 268.69140625">
  <!-- svg-source:excalidraw -->
  <defs>
    <style>
      @font-face {
        font-family: "Virgil";
        src: url("https://excalidraw.com/FG_Virgil.woff2");
      }
      @font-face {
        font-family: "Cascadia";
        src: url("https://excalidraw.com/Cascadia.woff2");
      }
    </style>
  </defs>
  <g stroke-opacity="0.6" fill-opacity="0.6" transform="translate(10 10) rotate(0 126.7734375 124.345703125)"><path d="M-3.116507463157177 3.068245939910412 L256.8466404154897 2.9763711020350456 L253.95634133368733 246.0407996699214 L-3.4302269741892815 252.20513515919447" stroke="none" stroke-width="0" fill="#2c3e50"></path><path d="M1.1333887227764656 2.2818378927769287 C70.86582340651604 -3.018573569664751, 143.56824392693684 1.0668090156897625, 251.6720176319481 1.2859654659745663 M-0.780981387160164 -0.17634273327875924 C72.27475926101062 0.10362497294872486, 143.16487454115475 -0.7187942096374301, 253.28741850486426 -0.18995864889382238 M254.88809546213403 3.2507962326834066 C258.6915256988771 97.97551022581808, 256.2544509854062 194.7439199499039, 250.50529498831102 245.4168390727526 M254.7061409248476 1.0971462863037384 C255.26870310012222 55.49569673893576, 255.98486875464664 110.37464328462217, 254.71714249248868 250.2529978253147 M251.85690202130422 250.10319752437658 C188.32044268062285 249.10301843314772, 117.88714907721165 246.54055675270183, -2.505263871627142 250.88861023620825 M254.8140963142532 248.1299352390912 C184.01665256369319 246.21173386557322, 111.50585393511966 245.01520806308193, 1.1915475180765487 250.01520592308688 M2.7400641897395746 246.20356716901773 C-0.1795961678235283 176.10922763208603, -0.8843225697899566 100.1954794161361, 2.6971115255520965 0.6593639877719355 M0.192447859911451 249.7028309106526 C2.3361550291641793 181.74878499372787, 0.7091407077030113 113.2650099198556, 0.8694926430894013 -1.185935275252685" stroke="#2c3e50" stroke-width="1" fill="none"></path></g><g transform="translate(28.51171875 24.52734375) rotate(0 39.494140625 29.873046875)"><path d="M14.746750665352497 7.131932342145657 C20.39068912444297 2.9349384969039205, 29.765997902972146 0.9089573885302364, 38.012001912823294 0.8890490036150389 C46.25800592267444 0.8691406186998414, 57.546257529913525 3.5762668896956225, 64.22277472445938 7.0124820326544715 C70.89929191900524 10.44869717561332, 76.37236225829675 16.004667398641107, 78.07110508009843 21.506339861368133 C79.76984790190012 27.00801232409516, 77.41434292283486 34.329578556626124, 74.41523165526948 40.02251680901662 C71.4161203877041 45.71545506140712, 67.03318416442795 52.76589872890274, 60.07643747470617 55.663969375711105 C53.11969078498438 58.56204002251947, 41.24965379123943 58.079274388885736, 32.674751516938755 57.41094068986679 C24.09984924263808 56.74260699084785, 13.799084267210183 55.60598171313599, 8.627023828902114 51.653967181597416 C3.4549633905940444 47.70195265005884, 2.1316162567076122 40.14540584854098, 1.642388887090334 33.69885350063537 C1.153161517473056 27.252301152729764, 1.6190148183544606 18.381959001601317, 5.691659611198446 12.974653094163767 C9.76430440404243 7.567347186726217, 20.587410096237956 3.4123767662216298, 26.07825764415425 1.2550180560100763 C31.56910519207054 -0.9023406542014771, 38.391413300336986 -0.3465945719221389, 38.63674489869621 0.030500832894446717 M18.243988083236207 5.07451621983072 C24.03802465460574 2.1903051001025826, 34.719825687205116 0.12976611806888982, 42.44329041066258 0.9135098764590914 C50.16675513412004 1.697253634849293, 58.05024763376969 5.290926178508789, 64.58477642398095 9.77697877017193 C71.11930521419222 14.26303136183507, 80.3909309677947 22.367040507964926, 81.65046315193015 27.829825426437935 C82.9099953360656 33.29261034491094, 77.34224999777283 37.419555150681525, 72.14196952879364 42.553688281009975 C66.94168905981445 47.687821411338426, 57.77829393091881 56.03891930033789, 50.448780338055016 58.634624208408624 C43.119266745191226 61.23032911647936, 35.10985378630093 59.66445368572061, 28.164887971610874 58.1279177294344 C21.219922156920813 56.59138177314819, 13.592345990083327 54.105685958620334, 8.77898544991465 49.41540847069136 C3.965624909745973 44.72513098276239, -1.0385482832162107 37.05527048606337, -0.7152752694011895 29.986252801860545 C-0.39200225558616825 22.917235117657718, 7.679158955089363 11.592176755001802, 10.718623532804777 7.001302365474402 C13.758088110520191 2.410427975947001, 16.394635188783703 2.5518308163293177, 17.52151219689129 2.441006464696141 C18.648389204998878 2.330182113062964, 17.355585624026027 5.54169164232844, 17.4798855814503 6.336356255675341" stroke="none" stroke-width="0" fill="#ff6633"></path><path d="M29.299661689250378 0.5443828769764352 C36.85009103860254 -1.0144256591909773, 48.30060037709708 1.3768428185668657, 55.72463785859662 4.129152988108942 C63.14867534009616 6.881463157651018, 69.9827994054501 11.758855158501103, 73.84388657824762 17.05824389422889 C77.70497375104515 22.35763262995668, 80.42795671768737 30.006217359510007, 78.89116089538177 35.925485402475665 C77.35436507307618 41.84475344544132, 70.57915907307179 48.480167771096134, 64.62311164441405 52.57385215202284 C58.66706421575631 56.66753653294954, 50.96332284290223 60.455654898698185, 43.15487632343532 60.48759168803587 C35.346429803968405 60.519528477373555, 24.680065035236996 56.45467430582115, 17.772432527612573 52.76547288804896 C10.864800019988149 49.07627147027677, 4.547382782786354 43.82161423093492, 1.7090812776887674 38.35238318140274 C-1.129220227408819 32.88315213187057, -1.896920701515746 25.339014165877142, 0.7426234970270542 19.95008659085589 C3.3821676955698545 14.561159015834637, 11.69634262747212 9.028302117920195, 17.54634646894557 6.018817731275238 C23.396350310419017 3.009333344630281, 31.52591315922793 3.078607669558272, 35.842646545867744 1.8931802709861465 C40.159379932507555 0.7077528724140212, 43.17557827138778 -1.3144027950701105, 43.44674678878445 -1.0937466601575139 M31.593243939059214 1.4860202195595846 C39.008460025335204 -0.010322324922082515, 53.50002062745809 -2.030601403646404, 60.48713736576532 1.0681047954355165 C67.47425410407254 4.166810994517437, 70.82713518558595 14.109490938255533, 73.51594436890258 20.07825741405111 C76.20475355221922 26.047023889846685, 78.6388710977643 30.85638692890654, 76.61999246566509 36.880703650208964 C74.60111383356589 42.905020371511384, 67.54058559896924 52.79136774829386, 61.40267257630733 56.22415774186564 C55.26475955364542 59.65694773543742, 47.40399513648483 58.469638850994016, 39.79251432969364 57.47744361163964 C32.181033522902446 56.48524837228527, 21.861701949650186 53.47006163776358, 15.73378773556017 50.2709863057394 C9.605873521470155 47.07191097371522, 5.444724153960461 43.87794904983532, 3.0250290451535378 38.28299161949456 C0.6053339363466144 32.6880341891538, -1.8545017700145223 22.434438469624407, 1.2156170827186301 16.70124172369481 C4.2857359354517826 10.968044977765214, 15.875298756478305 6.6170721297555595, 21.445742161552452 3.8838111439169722 C27.0161855666266 1.150550158078385, 32.600025562379344 0.9304313329383606, 34.638277513163516 0.3016758086632869 C36.67652946394769 -0.3270797156117867, 33.804309899612996 -0.49498755700828545, 33.675253866257464 0.11127799826653018" stroke="#2c3e50" stroke-width="1" fill="none"></path></g><g transform="translate(37.029296875 34.166015625) rotate(0 31.5 20.5)"><text x="63" y="33" font-family="Helvetica" font-size="36px" fill="#fff" text-anchor="end" style="white-space: pre;">Vue</text></g><g transform="translate(71.509765625 99.103515625) rotate(0 68.615234375 32.083984375)"><path d="M16.799282179918556 10.887080430239848 C22.867776350440696 6.29924181746615, 32.59396131901809 2.6061132254881523, 43.25918718627459 1.2043447495818427 C53.92441305353108 -0.1974237263244667, 69.04031708664215 1.247092961539351, 80.79063738345755 2.4764695748019925 C92.54095768027295 3.7058461880646343, 104.62911267780021 5.1960389505405615, 113.76110896716699 8.580604429157692 C122.89310525653377 11.965169907774822, 132.13353091057238 17.344231296072206, 135.58261511965821 22.78386244650477 C139.03169932874405 28.223493596937335, 137.37190319597127 36.19914819135242, 134.45561422168203 41.218391331753075 C131.53932524739278 46.23763447215373, 126.34122453567375 49.1086458984649, 118.08488127392279 52.899321288908695 C109.82853801217183 56.68999667935249, 96.28646879289215 62.48960563005346, 84.91755465117632 63.96244367441584 C73.54864050946048 65.43528171877821, 61.1996276726949 63.34499673677294, 49.8713964236278 61.73634955508297 C38.5431651745607 60.12770237339299, 24.686361853133384 58.36600501757374, 16.948167156773707 54.310560584276004 C9.20997246041403 50.25511615097827, 5.505435044873261 43.033189716317864, 3.4422282454697353 37.40368295529657 C1.3790214460662091 31.774176194275267, -1.002911009784615 26.03854776000232, 4.568926360352549 20.533520018148202 C10.140763730489713 15.028492276294084, 26.739025938071023 7.789703825449623, 36.87325246629272 4.373516504171871 C47.007478994514415 0.9573291828941195, 64.91372337285846 -0.4011718503618506, 65.37428552968271 0.0363960904816949 M81.36848918071567 -1.2275421538056968 C93.10613629320592 -0.7561469590853467, 108.68900731047322 2.072068808892495, 118.00598868500535 6.159503280961527 C127.32297005953748 10.246937753030558, 134.3704146760595 17.620139930071286, 137.27037742790844 23.297064678608493 C140.17034017975737 28.9739894271457, 138.81686363713692 35.10300974698477, 135.4057651960989 40.22105177218477 C131.9946667550609 45.33909379738478, 124.98368186137876 50.24001717913598, 116.80378678168043 54.005316829808535 C108.6238917019821 57.77061648048109, 98.10497963834315 61.85429237915303, 86.326394717909 62.812849676220104 C74.54780979747484 63.77140697328718, 57.94883265852858 60.85236887670996, 46.13227725907548 59.75666061221097 C34.31572185962238 58.660952347711984, 22.805484091626624 59.76771565791079, 15.42706232119037 56.238600089226175 C8.048640550754115 52.70948452054156, 3.86571588387647 44.62616279998151, 1.8617466364579514 38.581967200103264 C-0.14222261096056732 32.53777160022502, -0.1810430423124969 25.08291565712531, 3.4032468366792585 19.973426489956722 C6.987536715671014 14.863937322788136, 14.438569671850436 10.986796728518797, 23.367485910408483 7.9250321970917454 C32.29640214896653 4.863267665664694, 46.548311206560435 2.974101780630794, 56.976744268027545 1.6028393013944076 C67.40517732949465 0.23157682215802144, 81.40462705958687 -0.28339503462244053, 85.93808427921114 -0.3025426783265708 C90.4715414988354 -0.321690322030701, 84.81520580705487 0.8229753765401716, 84.17748758577312 1.487953439169626" stroke="none" stroke-width="0" fill="#ff6633"></path><path d="M66.52658500939756 -1.7028623238253502 C77.09853072740862 -2.0629085860621683, 90.20572422005259 2.087466438002315, 100.2159107057789 4.758424662308535 C110.2260971915052 7.429382886614755, 120.72536773799305 9.988797263929115, 126.58770392375538 14.322887022011969 C132.45004010951772 18.656976780094823, 135.3380931554617 24.69518649009263, 135.38992782035285 30.762963210805662 C135.441762485244 36.83073993151869, 132.8342355446544 45.8655636151178, 126.89871191310232 50.72954734629016 C120.96318828155023 55.59353107746252, 110.0296800747261 57.50236363677664, 99.77678603104033 59.946865597839825 C89.52389198735456 62.391367558903006, 77.21874683150848 65.53422741156368, 65.38134765098768 65.39655911266927 C53.54394847046687 65.25889081377485, 38.835015621221395 62.456547568548054, 28.752390947915487 59.12085580447332 C18.66976627460958 55.78516404039859, 9.828301248415077 50.71917329550861, 4.885599611152237 45.382408528220864 C-0.057102026110603 40.04564376093312, -2.131936987348144 32.716316715417115, -0.9038188756615568 27.10026720074684 C0.3242992360250305 21.484217686076562, 4.865937842361373 16.107083483255888, 12.254308281271761 11.686111440199213 C19.64267872018215 7.265139397142536, 31.714566710372168 2.6545345561565643, 43.42640375780077 0.5744349424067785 C55.13824080522937 -1.5056646713430073, 73.17980030908726 -1.659924118122209, 82.52533056584336 -0.7944862422995023 C91.87086082259947 0.07095163352320455, 99.7423649386316 4.730883856968999, 99.49958529833742 5.767062197343019 M16.57747882298451 12.402959612060979 C22.61297527425543 7.984514689779295, 32.86133392052445 6.753421968565892, 43.84720016744224 4.335242973772186 C54.833066414360026 1.9170639789784794, 70.7455288256033 -2.385321128272808, 82.49267630449124 -2.1061143567012586 C94.23982378337918 -1.8269075851297092, 105.68688043095452 2.4189493271689737, 114.33008504076986 6.010483603201482 C122.9732896505852 9.60201787923399, 131.12736607272797 14.437285550783306, 134.35190396338334 19.443091299493794 C137.5764418540387 24.44889704820428, 136.48727576168477 30.188255677141374, 133.67731238470202 36.04531809546441 C130.86734900771927 41.90238051378745, 125.51865519905526 50.12705901092993, 117.49212370148689 54.585465809432016 C109.46559220391852 59.0438726079341, 96.27223238048775 61.682225763362815, 85.5181233992918 62.7957588864769 C74.76401441809584 63.90929200959098, 63.49280142535487 62.258441353811754, 52.96746981431117 61.266664548116516 C42.442138203267476 60.27488774242128, 30.702360347417468 60.83361297560674, 22.366133733029635 56.845098052305474 C14.0299071186418 52.85658312900421, 6.601311470708202 42.89301621359286, 2.9501101279841606 37.33557500830889 C-0.7010912147398813 31.778133803024932, -1.020350902015745 27.94853563145249, 0.4589256766853822 23.500450820601703 C1.9382022553865095 19.052366009750916, 9.762710032969498 12.637490255282525, 11.825769600190924 10.647066143204174 C13.88882916741235 8.656642031125823, 11.291566976206736 10.509479713529828, 12.83728308001394 11.557906148131597" stroke="#2c3e50" stroke-width="1" fill="none"></path></g><g transform="translate(87.5 108.5078125) rotate(0 53 20.5)"><text x="106" y="33" font-family="Helvetica" font-size="36px" fill="#fff" text-anchor="end" style="white-space: pre;">Infinite</text></g><g transform="translate(159.224609375 176.005859375) rotate(0 46.029296875 34.65234375)"><path d="M57.031873610794534 2.1292156566304214 C65.4116976340249 3.1327941963408845, 75.2580053772744 5.718611260727787, 81.30839371371283 10.994566176575415 C87.35878205015126 16.270521092423042, 92.4639176675402 27.04364084456052, 93.33420362942508 33.78494515171619 C94.20448959130995 40.52624945887185, 91.21557091901256 46.08734841856969, 86.53010948502207 51.44239201950941 C81.84464805103157 56.797435620449136, 73.83907628205615 62.85425719885208, 65.2214350254821 65.91520675735454 C56.603793768908034 68.976156315857, 44.01588676745542 70.94204413377413, 34.82426194557769 69.80808937052416 C25.632637123699958 68.67413460727418, 16.15083594661137 64.02514834029223, 10.071686094215714 59.11147817785472 C3.9925362418200585 54.19780801541721, -1.2283854069189637 46.8629031045559, -1.6506371687962442 40.326068395899085 C-2.0728889306735248 33.78923368724227, 2.6672699511052107 25.870499277850843, 7.538175522952031 19.890469925913848 C12.40908109479885 13.910440573976853, 19.779955366147597 7.610847956372192, 27.57479626228468 4.445892284277104 C35.36963715842176 1.2809366121820154, 45.95945548196116 0.2895156494688832, 54.30722089977453 0.9007358933433167 C62.6549863175879 1.5119561372177501, 71.7898595930489 4.501260248368471, 77.66138876916492 8.113213747523705 C83.53291794528093 11.72516724667894, 90.29167832453727 22.15352994685396, 89.53639595647061 22.572456888274722 M13.6021796096379 9.602764582395242 C18.91723321166851 3.863296843314184, 27.430543040777984 1.1915454292137806, 35.353396036686206 -0.17979412715943965 C43.27624903259443 -1.55113368353266, 53.25348814825718 -1.6107038728680223, 61.139297585087235 1.3747272441559204 C69.0251070219173 4.360158361179863, 77.1152948780787 12.308110035654163, 82.66825265766653 17.732792574984217 C88.22121043725436 23.15747511431427, 94.37947331779719 28.046169396316916, 94.45704426261418 33.92282248013623 C94.53461520743116 39.799475563955546, 88.40516334215849 47.40591728831057, 83.13367832656841 52.99271107790011 C77.86219331097834 58.57950486748965, 71.64152758913146 65.17124029917449, 62.82813416907378 67.4435852176735 C54.014740749016106 69.71593013617252, 39.40292274853029 68.6832818760853, 30.253317806222377 66.62678058889425 C21.103712863914467 64.5702793017032, 12.523056136368815 60.64946060489851, 7.930504515226303 55.104577494527156 C3.3379528940837915 49.559694384155804, 2.868723217917507 40.40311897480321, 2.6980080793673054 33.35748192666614 C2.527292940817104 26.311844878529065, 5.224314612545591 16.717123151612018, 6.906213683925095 12.830755205704712 C8.5881127553046 8.944387259797406, 12.065250025754958 9.542445877273895, 12.789402507644333 10.039274251222306 C13.513554989533707 10.536102625170717, 10.5484655624567 15.404233308406411, 11.251128575261347 15.811725449395173" stroke="none" stroke-width="0" fill="#ff6633"></path><path d="M51.85857487931057 1.2994852068224105 C60.29249623626684 1.7756811231860095, 69.37969621805168 4.107725113653639, 75.65275288946657 8.530663982861931 C81.92580956088146 12.953602852070222, 87.04207284386204 20.991602713779194, 89.49691490779992 27.837118422072166 C91.9517569717378 34.68263413036514, 93.62245762966079 43.50334977969533, 90.38180527309385 49.60375823261977 C87.1411529165269 55.70416668554421, 78.14563681459586 61.222394264898114, 70.0530007683983 64.43956913961881 C61.96036472220075 67.65674401433951, 50.62406991596614 69.21527562744296, 41.82598899590851 68.90680748094395 C33.02790807585088 68.59833933444494, 23.964729023916902 66.7920253526566, 17.26451524805255 62.588760260624774 C10.564301472188198 58.38549516859295, 4.2649999585600415 50.3048184190476, 1.6247063407223905 43.68721692875302 C-1.0155872771152605 37.069615438458435, -1.2128552182955339 28.858559136150237, 1.422753541026644 22.883151318857287 C4.058362300348822 16.907743501564337, 10.352729076149565 11.783674484536244, 17.43835889665546 7.8347700249953185 C24.52398871716135 3.885865565454393, 34.78758510507522 -0.5523435378626012, 43.936532464062005 -0.8102754383882669 C53.085479823048786 -1.0682073389139326, 65.34474960454145 3.5597362107050614, 72.33204305057616 6.287178621841324 C79.31933649661087 9.014621032977587, 86.77216787715876 15.32270660157644, 85.86029314027024 15.55437902842931 M20.587583914589413 5.753746691753921 C26.396286805099425 1.6436651014976418, 33.9847628939961 -2.4354199775296297, 42.783759802391025 -2.71153359342604 C51.58275671078595 -2.9876472093224504, 65.87029079107168 -0.25779589643890777, 73.38156536495896 4.097064996375458 C80.89283993884624 8.451925889189823, 85.10469434813086 16.333907814494598, 87.85140724571465 23.417631763460157 C90.59812014329844 30.501355712425717, 91.85308956051074 40.49160725210836, 89.8618427504617 46.59940869016881 C87.87059594041267 52.707210128229256, 82.25737893359609 56.02152183156484, 75.90392638542045 60.064440391822856 C69.55047383724481 64.10735895208087, 60.619427044789646 69.91356532604398, 51.741127461407835 70.85692005171693 C42.862827878026025 71.80027477738987, 30.23921557575136 69.72588765226357, 22.63412888512959 65.72456874586057 C15.029042194507824 61.723249839457566, 9.4518263888575 52.8296968925404, 6.110607317677228 46.84900661329891 C2.769388246496957 40.868316334057425, 1.0715080065460925 35.9399048425132, 2.586814458047961 29.840427070411664 C4.102120909549829 23.740949298310127, 12.238751093248167 13.938860733760423, 15.202446026688438 10.252139980689684 C18.16614096012871 6.5654192276189445, 19.449399010263306 7.831885709270672, 20.36898405868959 7.720102551987232 C21.288569107115876 7.608319394703791, 20.63496859779918 9.73969752741887, 20.719956317246154 9.581441036989041" stroke="#2c3e50" stroke-width="1" fill="none"></path></g><g transform="translate(169.08984375 191.40234375) rotate(0 36.5 20.5)"><text x="73" y="33" font-family="Helvetica" font-size="36px" fill="#fff" text-anchor="end" style="white-space: pre;">Tree</text></g></svg>